<?xml version="1.0" standalone="no"?>
<!DOCTYPE svg PUBLIC "-//W3C//DTD SVG 20010904//EN"
 "http://www.w3.org/TR/2001/REC-SVG-20010904/DTD/svg10.dtd">
<svg version="1.0" xmlns="http://www.w3.org/2000/svg"
 width="512.000000pt" height="512.000000pt" viewBox="0 0 512.000000 512.000000"
 preserveAspectRatio="xMidYMid meet">
<metadata>
Created by potrace 1.11, written by Peter Selinger 2001-2013
</metadata>
<g transform="translate(0.000000,512.000000) scale(0.100000,-0.100000)"
fill="#000000" stroke="none">
<path d="M2585 5025 c-271 -58 -499 -294 -555 -577 -8 -41 -11 -424 -11 -1335
l0 -1278 -58 -60 c-130 -134 -229 -326 -267 -520 -13 -70 -13 -270 1 -345 17
-92 101 -296 141 -341 8 -8 14 -19 14 -23 0 -11 75 -102 130 -156 125 -125
289 -222 458 -271 98 -28 152 -34 302 -33 114 0 151 5 235 27 229 62 448 205
571 372 16 22 31 42 34 45 11 10 49 76 84 146 67 137 95 271 91 439 -2 66 -6
135 -10 153 -11 55 -65 214 -81 236 -8 11 -14 28 -14 37 0 10 -3 19 -7 21 -5
2 -29 35 -55 73 -57 86 -82 118 -130 163 l-37 34 -1 1277 c0 702 -2 1287 -3
1301 -19 138 -89 286 -186 391 -176 191 -413 273 -646 224z m309 -174 c197
-70 335 -238 360 -441 3 -24 6 -633 6 -1352 0 -720 4 -1308 8 -1308 18 0 155
-148 196 -209 55 -85 81 -142 108 -238 29 -102 31 -313 5 -413 -67 -250 -219
-441 -442 -553 -242 -122 -575 -125 -814 -8 -174 85 -309 217 -390 381 -69
139 -92 247 -86 415 5 171 55 315 156 451 40 55 157 174 170 174 4 0 8 597 8
1328 1 1306 1 1328 21 1401 32 115 90 209 169 274 57 47 155 96 224 112 79 19
230 12 301 -14z"/>
<path d="M2635 4627 c-96 -32 -162 -90 -204 -177 l-26 -55 -3 -1360 -3 -1360
-48 -33 c-73 -49 -151 -138 -193 -217 -155 -296 -64 -661 210 -838 121 -78
198 -100 352 -101 111 0 134 3 203 27 198 69 353 231 412 432 19 63 26 229 13
295 -30 157 -120 299 -247 391 l-60 44 2 140 2 140 75 0 75 0 0 60 0 60 -45 2
c-25 0 -60 2 -77 2 l-33 1 0 165 0 165 80 0 81 0 -3 73 -3 72 -45 1 c-25 1
-60 2 -77 3 l-33 1 0 110 0 110 81 0 80 0 -3 48 -3 47 -45 2 c-25 0 -60 2 -77
2 l-33 1 0 190 0 190 80 0 80 0 0 49 0 49 -57 0 c-32 0 -68 1 -81 1 l-22 1 2
178 3 177 78 -2 78 -1 -3 61 -3 62 -55 2 c-30 1 -65 2 -77 2 -23 1 -23 1 -23
179 l0 178 80 -2 81 -2 -3 61 -3 62 -55 2 c-30 0 -65 2 -76 2 -18 1 -23 9 -28
44 -16 103 -93 206 -186 248 -57 26 -162 33 -215 16z"/>
</g>
</svg>
